<svg xmlns="http://www.w3.org/2000/svg" viewBox="0 0 1024 1024" role="img" aria-label="ديوان آل طه — Diwan Al-Taha">
  <defs>
    <pattern id="brick" width="116" height="50" patternUnits="userSpaceOnUse" patternTransform="translate(653 366)">
      <rect width="116" height="50" fill="#E3D4B3"/>
      <g stroke="#F2E9D5" stroke-width="3">
        <line x1="0" y1="0" x2="116" y2="0"/><line x1="0" y1="25" x2="116" y2="25"/><line x1="0" y1="50" x2="116" y2="50"/>
        <line x1="0" y1="0" x2="0" y2="25"/><line x1="116" y1="0" x2="116" y2="25"/><line x1="58" y1="25" x2="58" y2="50"/>
      </g>
    </pattern>
    <clipPath id="roofClip"><path d="M790 384 L886 462 L694 462 Z"/></clipPath>
    <linearGradient id="domeG" x1="0%" y1="0%" x2="100%" y2="0%">
      <stop offset="0%" stop-color="#E3D4B4"/><stop offset="55%" stop-color="#E0D0AC"/><stop offset="100%" stop-color="#D2C09A"/>
    </linearGradient>
  </defs>
  <rect width="1024" height="1024" fill="#FFFFFF"/>
  <g transform="translate(-526.56 -123.88) scale(1.3558)">
    <g id="building">
      <path id="dome" d="M685 366 A200 200 0 0 1 955 366 Z" fill="url(#domeG)"/>
      <rect id="wall" x="653" y="366" width="347" height="223" fill="url(#brick)"/>
      <rect id="wall-edge" x="653" y="366" width="347" height="223" fill="none" stroke="#CDBB92" stroke-width="2.5"/>
      <g id="window">
        <rect x="900" y="476" width="50" height="65" rx="3" fill="#F4EBD8" stroke="#D9C9A6" stroke-width="4"/>
        <g transform="translate(925 508.5)" fill="none" stroke="#CDBC96" stroke-width="2.6">
          <circle r="5.5"/>
          <path transform="rotate(0)" d="M0 -6 C3.4 -11 3.4 -17 0 -21 C-3.4 -17 -3.4 -11 0 -6 Z"/><path transform="rotate(45)" d="M0 -6 C3.4 -11 3.4 -17 0 -21 C-3.4 -17 -3.4 -11 0 -6 Z"/><path transform="rotate(90)" d="M0 -6 C3.4 -11 3.4 -17 0 -21 C-3.4 -17 -3.4 -11 0 -6 Z"/><path transform="rotate(135)" d="M0 -6 C3.4 -11 3.4 -17 0 -21 C-3.4 -17 -3.4 -11 0 -6 Z"/><path transform="rotate(180)" d="M0 -6 C3.4 -11 3.4 -17 0 -21 C-3.4 -17 -3.4 -11 0 -6 Z"/><path transform="rotate(225)" d="M0 -6 C3.4 -11 3.4 -17 0 -21 C-3.4 -17 -3.4 -11 0 -6 Z"/><path transform="rotate(270)" d="M0 -6 C3.4 -11 3.4 -17 0 -21 C-3.4 -17 -3.4 -11 0 -6 Z"/><path transform="rotate(315)" d="M0 -6 C3.4 -11 3.4 -17 0 -21 C-3.4 -17 -3.4 -11 0 -6 Z"/>
        </g>
      </g>
      <g id="porch">
        <rect x="710" y="460" width="12" height="129" rx="3" fill="#2B4569"/>
        <rect x="856" y="460" width="12" height="129" rx="3" fill="#2B4569"/>
        <rect x="704" y="583" width="24" height="8" rx="2.5" fill="#2B4569"/>
        <rect x="850" y="583" width="24" height="8" rx="2.5" fill="#2B4569"/>
        <g id="door">
          <path d="M763 589 V510 A28 30 0 0 1 819 510 V589 Z" fill="#F4EBD8" stroke="#D9C9A6" stroke-width="4"/>
          <g stroke="#D9C9A6" stroke-width="1.8" opacity="0.85" fill="none"><path d="M782 485 V589"/><path d="M800 485 V589"/></g>
          <circle cx="777" cy="540" r="3.6" fill="#2B4569"/>
        </g>
        <g id="roof">
          <path d="M790 382 L890 464 L690 464 Z" fill="#B34D2B"/>
          <g clip-path="url(#roofClip)">
            <path d="M790 386 L838 432 L742 432 Z" fill="#C96A43"/>
            <g stroke="#8E3A1F" stroke-width="2.4">
              <line x1="690" y1="446" x2="890" y2="446"/><line x1="700" y1="428" x2="880" y2="428"/>
              <line x1="716" y1="412" x2="864" y2="412"/><line x1="732" y1="398" x2="848" y2="398"/>
            </g>
            <g stroke="#8E3A1F" stroke-width="1.8">
              <line x1="726" y1="446" x2="726" y2="464"/><line x1="758" y1="446" x2="758" y2="464"/><line x1="790" y1="446" x2="790" y2="464"/><line x1="822" y1="446" x2="822" y2="464"/><line x1="854" y1="446" x2="854" y2="464"/>
              <line x1="742" y1="428" x2="742" y2="446"/><line x1="774" y1="428" x2="774" y2="446"/><line x1="806" y1="428" x2="806" y2="446"/><line x1="838" y1="428" x2="838" y2="446"/>
              <line x1="758" y1="412" x2="758" y2="428"/><line x1="790" y1="412" x2="790" y2="428"/><line x1="822" y1="412" x2="822" y2="428"/>
              <line x1="774" y1="398" x2="774" y2="412"/><line x1="806" y1="398" x2="806" y2="412"/>
            </g>
          </g>
          <path d="M690 464 q10 7 20 0 q10 7 20 0 q10 7 20 0 q10 7 20 0 q10 7 20 0 q10 7 20 0 q10 7 20 0 q10 7 20 0 q10 7 20 0 q10 7 20 0 l0 4 h-200 z" fill="#9C4023"/>
          <circle cx="790" cy="380" r="5" fill="#2B4569"/>
        </g>
      </g>
    </g>
    <g id="tree" fill="#2B4569">
      <path d="M602 589 C600 566 598 540 602 514 C605 492 608 468 607 444 C606 420 606 396 610 374 C612 360 615 348 620 338 L630 340 C627 352 625 364 625 378 C625 400 628 424 628 448 C628 476 624 506 623 534 C622 556 623 574 626 589 Z"/>
      <path d="M606 589 C599 579 589 573 576 570 C568 569 561 570 556 572 C568 574 578 578 586 583 C592 586 599 588 604 589 Z"/>
      <path d="M622 589 C629 579 639 573 652 570 C660 569 667 570 672 572 C660 574 650 578 642 583 C636 586 629 588 624 589 Z"/>
      <g stroke="#2B4569" stroke-width="9" fill="none" stroke-linecap="round">
        <path d="M616 356 C596 336 570 322 542 316"/><path d="M618 344 C608 316 608 288 618 262"/>
        <path d="M622 348 C644 326 672 312 702 308"/><path d="M612 376 C586 364 558 360 530 364"/>
        <path d="M624 368 C650 356 678 352 706 356"/><path d="M619 310 C616 286 618 262 626 242"/>
        <path d="M621 306 C638 286 660 272 686 264"/><path d="M617 306 C602 284 582 268 558 260"/>
      </g>
      <g id="leaves">
      <g transform="translate(508 306) rotate(58) scale(1.6)"><path d="M0 0 C4.5 -6.6 10.5 -6.6 15 0 C10.5 6.6 4.5 6.6 0 0 Z"/></g>
      <g transform="translate(512 272) rotate(46) scale(1.6)"><path d="M0 0 C4.5 -6.6 10.5 -6.6 15 0 C10.5 6.6 4.5 6.6 0 0 Z"/></g>
      <g transform="translate(528 246) rotate(36) scale(1.6)"><path d="M0 0 C4.5 -6.6 10.5 -6.6 15 0 C10.5 6.6 4.5 6.6 0 0 Z"/></g>
      <g transform="translate(554 224) rotate(24) scale(1.6)"><path d="M0 0 C4.5 -6.6 10.5 -6.6 15 0 C10.5 6.6 4.5 6.6 0 0 Z"/></g>
      <g transform="translate(584 206) rotate(12) scale(1.6)"><path d="M0 0 C4.5 -6.6 10.5 -6.6 15 0 C10.5 6.6 4.5 6.6 0 0 Z"/></g>
      <g transform="translate(616 196) rotate(2) scale(1.6)"><path d="M0 0 C4.5 -6.6 10.5 -6.6 15 0 C10.5 6.6 4.5 6.6 0 0 Z"/></g>
      <g transform="translate(648 193) rotate(-7) scale(1.6)"><path d="M0 0 C4.5 -6.6 10.5 -6.6 15 0 C10.5 6.6 4.5 6.6 0 0 Z"/></g>
      <g transform="translate(676 199) rotate(-17) scale(1.6)"><path d="M0 0 C4.5 -6.6 10.5 -6.6 15 0 C10.5 6.6 4.5 6.6 0 0 Z"/></g>
      <g transform="translate(703 210) rotate(-28) scale(1.6)"><path d="M0 0 C4.5 -6.6 10.5 -6.6 15 0 C10.5 6.6 4.5 6.6 0 0 Z"/></g>
      <g transform="translate(726 227) rotate(-40) scale(1.6)"><path d="M0 0 C4.5 -6.6 10.5 -6.6 15 0 C10.5 6.6 4.5 6.6 0 0 Z"/></g>
      <g transform="translate(744 250) rotate(-52) scale(1.6)"><path d="M0 0 C4.5 -6.6 10.5 -6.6 15 0 C10.5 6.6 4.5 6.6 0 0 Z"/></g>
      <g transform="translate(751 278) rotate(-64) scale(1.6)"><path d="M0 0 C4.5 -6.6 10.5 -6.6 15 0 C10.5 6.6 4.5 6.6 0 0 Z"/></g>
      <g transform="translate(546 280) rotate(32) scale(1.6)"><path d="M0 0 C4.5 -6.6 10.5 -6.6 15 0 C10.5 6.6 4.5 6.6 0 0 Z"/></g>
      <g transform="translate(576 256) rotate(19) scale(1.6)"><path d="M0 0 C4.5 -6.6 10.5 -6.6 15 0 C10.5 6.6 4.5 6.6 0 0 Z"/></g>
      <g transform="translate(610 243) rotate(5) scale(1.6)"><path d="M0 0 C4.5 -6.6 10.5 -6.6 15 0 C10.5 6.6 4.5 6.6 0 0 Z"/></g>
      <g transform="translate(644 241) rotate(-9) scale(1.6)"><path d="M0 0 C4.5 -6.6 10.5 -6.6 15 0 C10.5 6.6 4.5 6.6 0 0 Z"/></g>
      <g transform="translate(677 252) rotate(-24) scale(1.6)"><path d="M0 0 C4.5 -6.6 10.5 -6.6 15 0 C10.5 6.6 4.5 6.6 0 0 Z"/></g>
      <g transform="translate(703 270) rotate(-38) scale(1.6)"><path d="M0 0 C4.5 -6.6 10.5 -6.6 15 0 C10.5 6.6 4.5 6.6 0 0 Z"/></g>
      <g transform="translate(719 296) rotate(-52) scale(1.6)"><path d="M0 0 C4.5 -6.6 10.5 -6.6 15 0 C10.5 6.6 4.5 6.6 0 0 Z"/></g>
      <g transform="translate(562 306) rotate(28) scale(1.6)"><path d="M0 0 C4.5 -6.6 10.5 -6.6 15 0 C10.5 6.6 4.5 6.6 0 0 Z"/></g>
      <g transform="translate(594 287) rotate(14) scale(1.6)"><path d="M0 0 C4.5 -6.6 10.5 -6.6 15 0 C10.5 6.6 4.5 6.6 0 0 Z"/></g>
      <g transform="translate(627 276) rotate(2) scale(1.6)"><path d="M0 0 C4.5 -6.6 10.5 -6.6 15 0 C10.5 6.6 4.5 6.6 0 0 Z"/></g>
      <g transform="translate(662 281) rotate(-15) scale(1.6)"><path d="M0 0 C4.5 -6.6 10.5 -6.6 15 0 C10.5 6.6 4.5 6.6 0 0 Z"/></g>
      <g transform="translate(689 297) rotate(-31) scale(1.6)"><path d="M0 0 C4.5 -6.6 10.5 -6.6 15 0 C10.5 6.6 4.5 6.6 0 0 Z"/></g>
      <g transform="translate(545 336) rotate(42) scale(1.6)"><path d="M0 0 C4.5 -6.6 10.5 -6.6 15 0 C10.5 6.6 4.5 6.6 0 0 Z"/></g>
      <g transform="translate(577 321) rotate(23) scale(1.6)"><path d="M0 0 C4.5 -6.6 10.5 -6.6 15 0 C10.5 6.6 4.5 6.6 0 0 Z"/></g>
      <g transform="translate(609 313) rotate(7) scale(1.6)"><path d="M0 0 C4.5 -6.6 10.5 -6.6 15 0 C10.5 6.6 4.5 6.6 0 0 Z"/></g>
      <g transform="translate(643 315) rotate(-11) scale(1.6)"><path d="M0 0 C4.5 -6.6 10.5 -6.6 15 0 C10.5 6.6 4.5 6.6 0 0 Z"/></g>
      <g transform="translate(671 329) rotate(-30) scale(1.6)"><path d="M0 0 C4.5 -6.6 10.5 -6.6 15 0 C10.5 6.6 4.5 6.6 0 0 Z"/></g>
      <g transform="translate(566 357) rotate(46) scale(1.6)"><path d="M0 0 C4.5 -6.6 10.5 -6.6 15 0 C10.5 6.6 4.5 6.6 0 0 Z"/></g>
      <g transform="translate(602 346) rotate(16) scale(1.6)"><path d="M0 0 C4.5 -6.6 10.5 -6.6 15 0 C10.5 6.6 4.5 6.6 0 0 Z"/></g>
      <g transform="translate(636 345) rotate(-8) scale(1.6)"><path d="M0 0 C4.5 -6.6 10.5 -6.6 15 0 C10.5 6.6 4.5 6.6 0 0 Z"/></g>
      </g>
    </g>
    <rect x="500" y="586" width="535" height="6" rx="3" fill="#2B4569"/>
    <g fill="#2B4569">
      <path transform="translate(512.3 692) scale(0.5892)" d="M101.60-19.40L94.60-19.40Q80.40-19.40 80.40-36L80.40-36L80.40-85.60Q80.40-87.60 78.20-87.60L78.20-87.60L76.40-87.60Q69.40-87.60 65.20-84Q61-80.40 61-74.20L61-74.20L61-73.20L45.20-73.20Q28.60-73.20 18.80-62L18.80-62Q9.60-51.80 9.60-35.60L9.60-35.60Q9.60-17 21.20-6.60L21.20-6.60Q31 2 45.20 2L45.20 2Q61 2 70.80-8.40L70.80-8.40Q79.80 0 95.20 0L95.20 0L101.60 0L101.60-19.40ZM45.20-16.40L45.20-16.40Q38.20-16.40 33.90-21.60Q29.60-26.80 29.60-35.60L29.60-35.60Q29.60-44.40 33.90-49.60Q38.20-54.80 45.40-54.80L45.40-54.80L61-54.80L61-35.60Q60.80-26.60 56.60-21.50Q52.40-16.40 45.20-16.40ZM187.20-76.80L187.20-76.80Q159.20-76.80 139.20-54.60L139.20-54.60L139.20-109.20Q139.20-111.20 137-111.20L137-111.20L135.40-111.20Q119.80-111.20 119.80-94.80L119.80-94.80L119.80-19.40L99.40-19.40L99.40 0L192.80 0Q208.80 0 219-11.20L219-11.20Q228.00-21.20 228.00-37.20L228.00-37.20Q228.00-56 215.60-67.20L215.60-67.20Q204.40-76.80 187.20-76.80ZM191.60-19.40L139.20-19.40Q146.40-38.60 159.40-49L159.40-49Q171.40-58.60 186-58.60L186-58.60Q196.20-58.60 202.20-53L202.20-53Q208.20-47.60 208.20-38.20L208.20-38.20Q208.20-30 203.50-24.70Q198.80-19.40 191.60-19.40L191.60-19.40ZM329.80 42.80L329.80 42.80Q354.60 42.80 368.80 26L368.80 26Q381.60 10.80 381.60-13.40L381.60-13.40L381.60-109.20Q381.60-111.20 379.40-111.20L379.40-111.20L377.80-111.20Q362.20-111.20 362.20-94.80L362.20-94.80L362.20-12.80Q362.20 6.20 351.20 16.40L351.20 16.40Q342.60 24.40 329.80 24.40L329.80 24.40Q314.60 24.40 305.60 13.80L305.60 13.80Q297.20 4 297.40-12.80L297.40-12.80Q297.40-28.60 306.40-43.20L306.40-43.20Q307.40-44.40 307.40-45.60L307.40-45.60Q307.60-48.20 304.60-48.20L304.60-48.20Q303.20-48.20 301.80-47.40L301.80-47.40Q291.40-43 285-32.50Q278.60-22 278.60-8.80L278.60-8.80Q278.60 15.80 295 30.40L295 30.40Q309 42.80 329.80 42.80ZM424-125.20L424-125.20Q427.80-125 430.40-127.50Q433-130 433-134.20L433-134.20Q433-137.20 431.40-139.40L431.40-139.40Q431.20-140.20 430.40-140.20L430.40-140.20Q429.80-140.20 428.80-138.40L428.80-138.40Q428.40-137.80 428.20-137.60L428.20-137.60Q425.80-134.40 423.20-134.40L423.20-134.40Q421-134.40 413.20-137.60L413.20-137.60Q406.60-140.40 403.80-140.40L403.80-140.40Q399.80-140.60 397.20-138.10Q394.60-135.60 394.60-131.60L394.60-131.60Q394.60-128.40 396.20-126.20L396.20-126.20Q396.40-125.60 397.20-125.60L397.20-125.60Q397.80-125.60 398.80-127.20L398.80-127.20Q399.20-127.80 399.40-128.20L399.40-128.20Q401.80-131.40 404.40-131.40L404.40-131.40Q406.60-131.40 414.40-128L414.40-128Q420.80-125.20 424-125.20ZM406.20 0L407.80 0Q423.40 0 423.40-16.40L423.40-16.40L423.40-109.20Q423.40-111.20 421.20-111.20L421.20-111.20L419.40-111.20Q404-111.20 404-94.80L404-94.80L404-2Q404 0 406.20 0L406.20 0ZM528-87.20L528-87.20Q523.60-87.20 520.50-84.10Q517.40-81 517.40-76.40L517.40-76.40Q517.40-72 520.50-68.80Q523.60-65.60 528-65.60L528-65.60Q532.40-65.60 535.40-68.80Q538.40-72 538.40-76.40L538.40-76.40Q538.40-81 535.40-84.10Q532.40-87.20 528-87.20ZM527.20 42.80L527.20 42.80Q552 42.80 566.20 26L566.20 26Q579 10.80 579-13.40L579-13.40L579-71.20Q579-73.20 576.80-73.20L576.80-73.20L575.20-73.20Q559.60-73.20 559.60-56.80L559.60-56.80L559.60-12.80Q559.60 6.20 548.60 16.40L548.60 16.40Q540 24.40 527.20 24.40L527.20 24.40Q512 24.40 503.00 13.80L503.00 13.80Q494.60 4 494.80-12.80L494.80-12.80Q494.80-28.60 503.80-43.20L503.80-43.20Q504.80-44.40 504.80-45.60L504.80-45.60Q505.00-48.20 502.00-48.20L502.00-48.20Q500.60-48.20 499.20-47.40L499.20-47.40Q488.80-43 482.40-32.50Q476.00-22 476.00-8.80L476.00-8.80Q476.00 15.80 492.40 30.40L492.40 30.40Q506.40 42.80 527.20 42.80ZM603.60 0L605.20 0Q620.80 0 620.80-16.40L620.80-16.40L620.80-109.20Q620.80-111.20 618.60-111.20L618.60-111.20L617-111.20Q601.40-111.20 601.40-94.80L601.40-94.80L601.40-2Q601.40 0 603.60 0L603.60 0ZM734.00-19.40L713.20-19.40Q713.40-23.60 713.20-28.40L713.20-28.40Q712.60-46 708.60-55.80L708.60-55.80Q700.20-76.80 676.80-76.80L676.80-76.80Q660.20-76.80 650.40-65.20L650.40-65.20Q641.40-54.40 641.40-37L641.40-37Q641.40-20 652.80-9.20L652.80-9.20Q662.80 0 677.00 0L677.00 0L693.00 0Q691.80 11.40 686.00 17.80Q680.20 24.20 670.80 24.40L670.80 24.40Q661.40 24.60 651.20 21.40L651.20 21.40Q649.20 20.60 648.20 20.60L648.20 20.60Q644.60 20.60 645.60 24.20L645.60 24.20Q647.20 31.60 654.00 36.60L654.00 36.60Q661.80 42.80 674.20 42.80L674.20 42.80Q684.60 43 692.80 37.90Q701.00 32.80 705.60 23.60L705.60 23.60Q710.60 14 712.20 0L712.20 0L734.00 0L734.00-19.40ZM693.00-19.40L677.00-19.40Q670.40-19.40 666.00-24.80Q661.60-30.20 661.60-38.20L661.60-38.20Q661.60-47.40 665.70-53Q669.80-58.60 676.80-58.60L676.80-58.60Q686.20-58.60 690.20-48.80L690.20-48.80Q694.00-40 693.00-19.40L693.00-19.40ZM731.80 0L737.60 0Q754.80 0 764-10.80L764-10.80Q771.80-20.20 771.80-35.60L771.80-35.60L771.80-71.20Q771.80-73.20 769.60-73.20L769.60-73.20L767.80-73.20Q752.20-73.20 752.20-56.80L752.20-56.80L752.20-36Q752.20-19.40 738-19.40L738-19.40L731.80-19.40L731.80 0ZM739 13.20L739 13.20Q734.80 13.20 731.90 16.20Q729 19.20 729 23.40L729 23.40Q729 27.60 731.90 30.60Q734.80 33.60 739 33.60L739 33.60Q743.20 33.60 746.10 30.60Q749 27.60 749 23.40L749 23.40Q749 19.20 746.10 16.20Q743.20 13.20 739 13.20ZM763.20 13.20L763.20 13.20Q758.80 13.20 755.90 16.20Q753 19.20 753 23.40L753 23.40Q753 27.60 755.90 30.60Q758.80 33.60 763.20 33.60L763.20 33.60Q767.20 33.60 770.10 30.60Q773 27.60 773 23.40L773 23.40Q773 19.20 770.10 16.20Q767.20 13.20 763.20 13.20ZM795.40 0L823.20 0Q839 0 849.20-11.80L849.20-11.80Q858.20-22.20 858.20-37.40L858.20-37.40Q858.20-56.20 848.40-67L848.40-67Q839.80-76.60 826-76.80L826-76.80Q816.40-77 809.60-71.60L809.60-71.60Q803.60-66.80 803-60.60L803-60.60Q802.60-55.20 805.60-55L805.60-55Q806.60-55 808.40-55.80L808.40-55.80Q808.80-55.80 809-56L809-56Q815.40-58.60 821.40-58.60L821.40-58.60Q829.20-58.40 833.70-53Q838.20-47.60 838.20-38.20L838.20-38.20Q838.20-30.40 833.60-24.90Q829-19.40 822.80-19.40L822.80-19.40L808.40-19.40Q800.80-19.40 796.20-15.40Q791.60-11.40 791.60-5.20L791.60-5.20L791.60-3.40Q791.60-1.20 792.30-0.60Q793 0 795.40 0L795.40 0Z"/>
      <path transform="translate(596.5 748) scale(0.5007)" d="M9.07-37.80L21.65-37.80Q27.65-37.80 32.08-35.48Q36.50-33.16 38.99-28.89Q41.47-24.62 41.47-18.90L41.47-18.90Q41.47-13.18 38.99-8.94Q36.50-4.70 32.08-2.35Q27.65 0 21.65 0L21.65 0L9.67 0L9.61-1.84Q10.15-1.84 11.47-1.84Q12.80-1.84 14.53-1.84Q16.25-1.84 17.82-1.84Q19.39-1.84 20.41-1.84Q21.44-1.84 21.44-1.84L21.44-1.84Q25.81-1.84 29.05-3.94Q32.29-6.05 34.07-9.88Q35.86-13.72 35.86-18.90L35.86-18.90Q35.86-24.08 34.07-27.92Q32.29-31.75 29.05-33.86Q25.81-35.96 21.44-35.96L21.44-35.96Q21.44-35.96 20.36-35.96Q19.28-35.96 17.63-35.96Q15.98-35.96 14.23-35.96Q12.47-35.96 11.04-35.96Q9.61-35.96 9.07-35.96L9.07-35.96L9.07-37.80ZM7.07-37.80L12.10-37.80L12.10 0L7.07 0L7.07-37.80ZM7.07-3.94L7.24-3.94L7.24 0L2.92 0L2.92-0.54Q2.92-0.54 3.27-0.54Q3.62-0.54 3.62-0.54L3.62-0.54Q5.02-0.54 6.02-1.54Q7.02-2.54 7.07-3.94L7.07-3.94ZM7.24-37.80L7.24-33.86L7.07-33.86Q7.07-35.26 6.05-36.26Q5.02-37.26 3.62-37.26L3.62-37.26Q3.62-37.26 3.29-37.26Q2.97-37.26 2.97-37.26L2.97-37.26L2.92-37.80L7.24-37.80ZM68.31-37.80L73.33-37.80L73.33 0L68.31 0L68.31-37.80ZM68.31-3.94L68.47-3.94L68.47 0L64.15 0L64.15-0.54Q64.15-0.54 64.50-0.54Q64.85-0.54 64.85-0.54L64.85-0.54Q66.26-0.54 67.26-1.54Q68.26-2.54 68.31-3.94L68.31-3.94ZM68.47-37.80L68.47-33.86L68.31-33.86Q68.26-35.26 67.26-36.26Q66.26-37.26 64.85-37.26L64.85-37.26Q64.85-37.26 64.50-37.26Q64.15-37.26 64.15-37.26L64.15-37.26L64.15-37.80L68.47-37.80ZM73.17 0L73.17-3.94L73.33-3.94Q73.39-2.54 74.38-1.54Q75.38-0.54 76.79-0.54L76.79-0.54Q76.79-0.54 77.11-0.54Q77.44-0.54 77.49-0.54L77.49-0.54L77.49 0L73.17 0ZM73.33-33.86L73.17-33.86L73.17-37.80L77.49-37.80L77.49-37.26Q77.44-37.26 77.11-37.26Q76.79-37.26 76.79-37.26L76.79-37.26Q75.38-37.26 74.38-36.26Q73.39-35.26 73.33-33.86L73.33-33.86ZM114.32 0.76L100.55-37.48L106.43-37.48L115.99-7.83L114.32 0.76ZM125.23-38.66L125.71-38.66L126.31-33.97L115.99-5.24Q115.99-5.24 115.70-4.29Q115.40-3.35 115.13-2.00Q114.86-0.65 114.80 0.76L114.80 0.76L114.32 0.76L113.13-4.59L125.23-38.66ZM123.23-31.10L125.71-38.61L137.21-8.64L135.54 0.76L123.23-31.10ZM144.02-37.48L147.26-37.48L137.16-5.24Q137.16-5.24 136.89-4.27Q136.62-3.29 136.35-1.92Q136.08-0.54 136.08 0.76L136.08 0.76L135.54 0.76L134.62-4.59L144.02-37.48ZM146.12-33.91L142.99-33.91Q143.42-35.53 142.72-36.40Q142.02-37.26 140.94-37.26L140.94-37.26L140.45-37.26L140.45-37.80L151.31-37.80L151.31-37.26Q151.31-37.26 151.09-37.26Q150.88-37.26 150.88-37.26L150.88-37.26Q149.63-37.26 148.18-36.48Q146.72-35.69 146.12-33.91L146.12-33.91ZM107.62-33.91L107.62-33.91L101.84-33.91Q101.20-35.69 99.77-36.48Q98.33-37.26 97.09-37.26L97.09-37.26Q97.09-37.26 96.88-37.26Q96.66-37.26 96.66-37.26L96.66-37.26L96.66-37.80L110.16-37.80L110.16-37.26L109.67-37.26Q108.65-37.26 107.87-36.40Q107.08-35.53 107.62-33.91ZM185.22-31.75L187.00-38.66L203.58-0.32L197.26-0.32L185.22-31.75ZM172.10-3.94L175.39-3.94Q175.01-2.86 175.28-2.11Q175.55-1.35 176.17-0.94Q176.80-0.54 177.44-0.54L177.44-0.54L177.93-0.54L177.93 0L166.86 0L166.86-0.54Q166.86-0.54 167.10-0.54Q167.35-0.54 167.35-0.54L167.35-0.54Q168.59-0.54 169.91-1.32Q171.23-2.11 172.10-3.94L172.10-3.94ZM186.52-38.66L187.00-38.66L187.43-33.97L173.93-0.16L170.42-0.16L184.30-32.62Q184.36-32.72 184.71-33.45Q185.06-34.18 185.46-35.21Q185.87-36.23 186.19-37.21Q186.52-38.18 186.52-38.66L186.52-38.66ZM177.44-14.09L193.97-14.09L193.97-12.26L177.44-12.26L177.44-14.09ZM195.86-3.94L195.86-3.94L201.96-3.94Q202.82-2.11 204.15-1.32Q205.47-0.54 206.71-0.54L206.71-0.54Q206.71-0.54 206.93-0.54Q207.14-0.54 207.14-0.54L207.14-0.54L207.14 0L193.32 0L193.32-0.54L193.81-0.54Q194.89-0.54 195.70-1.43Q196.51-2.32 195.86-3.94ZM230.58-32.45L230.04-38.61L262.44-5.35L262.98 0.76L230.58-32.45ZM230.04-3.83L230.20-3.83L230.20 0L225.72 0L225.72-0.54Q225.72-0.54 226.21-0.54Q226.69-0.54 226.75-0.54L226.75-0.54Q228.10-0.54 229.07-1.51Q230.04-2.48 230.04-3.83L230.04-3.83ZM234.09-3.83L234.25-3.83Q234.25-2.48 235.22-1.51Q236.20-0.54 237.55-0.54L237.55-0.54Q237.60-0.54 238.09-0.54Q238.57-0.54 238.57-0.54L238.57-0.54L238.57 0L234.09 0L234.09-3.83ZM229.50-38.61L230.04-38.61L234.20-33.86L234.25 0L230.04 0L230.04-31.86Q230.04-34.72 229.77-36.67Q229.50-38.61 229.50-38.61L229.50-38.61ZM258.77-37.80L262.93-37.80L262.93-6.16Q262.93-4.32 263.06-2.73Q263.20-1.13 263.33-0.19Q263.47 0.76 263.47 0.76L263.47 0.76L262.98 0.76L258.77-4.05L258.77-37.80ZM262.76-37.80L267.25-37.80L267.25-37.26Q267.25-37.26 266.76-37.26Q266.27-37.26 266.27-37.26L266.27-37.26Q264.92-37.26 263.95-36.31Q262.98-35.37 262.93-33.97L262.93-33.97L262.76-33.97L262.76-37.80ZM254.39-37.26L254.39-37.80L258.88-37.80L258.88-33.97L258.77-33.97Q258.71-35.37 257.77-36.31Q256.82-37.26 255.42-37.26L255.42-37.26Q255.42-37.26 254.93-37.26Q254.45-37.26 254.39-37.26L254.39-37.26ZM348.46-31.75L350.24-38.66L366.82-0.32L360.50-0.32L348.46-31.75ZM335.34-3.94L338.63-3.94Q338.26-2.86 338.53-2.11Q338.80-1.35 339.42-0.94Q340.04-0.54 340.69-0.54L340.69-0.54L341.17-0.54L341.17 0L330.10 0L330.10-0.54Q330.10-0.54 330.35-0.54Q330.59-0.54 330.59-0.54L330.59-0.54Q331.83-0.54 333.15-1.32Q334.48-2.11 335.34-3.94L335.34-3.94ZM349.76-38.66L350.24-38.66L350.68-33.97L337.18-0.16L333.67-0.16L347.54-32.62Q347.60-32.72 347.95-33.45Q348.30-34.18 348.70-35.21Q349.11-36.23 349.43-37.21Q349.76-38.18 349.76-38.66L349.76-38.66ZM340.69-14.09L357.21-14.09L357.21-12.26L340.69-12.26L340.69-14.09ZM359.10-3.94L359.10-3.94L365.20-3.94Q366.07-2.11 367.39-1.32Q368.71-0.54 369.95-0.54L369.95-0.54Q369.95-0.54 370.17-0.54Q370.39-0.54 370.39-0.54L370.39-0.54L370.39 0L356.56 0L356.56-0.54L357.05-0.54Q358.13-0.54 358.94-1.43Q359.75-2.32 359.10-3.94ZM393.88-37.80L398.90-37.80L398.90 0L393.88 0L393.88-37.80ZM398.74-1.89L413.37-1.89L413.80 0L398.74 0L398.74-1.89ZM416.34-9.50L416.88-9.50L413.96 0L404.46 0L406.40-1.89Q409.21-1.89 411.10-2.83Q412.99-3.78 414.23-5.51Q415.48-7.24 416.34-9.50L416.34-9.50ZM393.88-3.94L394.04-3.94L394.04 0L389.72 0L389.72-0.54Q389.72-0.54 390.07-0.54Q390.42-0.54 390.42-0.54L390.42-0.54Q391.82-0.54 392.82-1.54Q393.82-2.54 393.88-3.94L393.88-3.94ZM394.04-37.80L394.04-33.86L393.88-33.86Q393.82-35.26 392.82-36.26Q391.82-37.26 390.42-37.26L390.42-37.26Q390.42-37.26 390.07-37.26Q389.72-37.26 389.72-37.26L389.72-37.26L389.72-37.80L394.04-37.80ZM398.90-33.86L398.74-33.86L398.74-37.80L403.06-37.80L403.06-37.26Q403.00-37.26 402.68-37.26Q402.35-37.26 402.35-37.26L402.35-37.26Q400.95-37.26 399.95-36.26Q398.95-35.26 398.90-33.86L398.90-33.86ZM437.18-15.77L437.56-17.17L453.76-17.17L454.14-15.77L453.76-14.31L437.56-14.31L437.18-15.77ZM487.84-37.64L492.86-37.64L492.86 0L487.84 0L487.84-37.64ZM474.17-37.85L506.52-37.85L506.52-36.02L474.17-36.02L474.17-37.85ZM502.04-36.18L506.52-36.18L506.52-31.16L505.98-31.21L505.98-32.02Q505.98-33.75 504.87-34.86Q503.77-35.96 502.04-36.02L502.04-36.02L502.04-36.18ZM506.52-38.83L506.52-38.83L506.52-37.26L499.93-37.85Q501.12-37.85 502.44-38.02Q503.77-38.18 504.90-38.39Q506.03-38.61 506.52-38.83ZM487.84-3.94L488.00-3.94L488.00 0L483.68 0L483.68-0.54Q483.68-0.54 484.03-0.54Q484.38-0.54 484.38-0.54L484.38-0.54Q485.78-0.54 486.78-1.54Q487.78-2.54 487.84-3.94L487.84-3.94ZM492.70 0L492.70-3.94L492.86-3.94Q492.91-2.54 493.91-1.54Q494.91-0.54 496.31-0.54L496.31-0.54Q496.31-0.54 496.67-0.54Q497.02-0.54 497.02-0.54L497.02-0.54L497.02 0L492.70 0ZM474.17-36.18L478.66-36.18L478.66-36.02Q476.93-35.96 475.82-34.86Q474.71-33.75 474.71-32.02L474.71-32.02L474.71-31.21L474.17-31.16L474.17-36.18ZM474.17-37.26L474.17-38.83Q474.71-38.61 475.82-38.39Q476.93-38.18 478.28-38.02Q479.63-37.85 480.76-37.85L480.76-37.85L474.17-37.26ZM542.21-31.75L544.00-38.66L560.57-0.32L554.26-0.32L542.21-31.75ZM529.09-3.94L532.39-3.94Q532.01-2.86 532.28-2.11Q532.55-1.35 533.17-0.94Q533.79-0.54 534.44-0.54L534.44-0.54L534.92-0.54L534.92 0L523.85 0L523.85-0.54Q523.85-0.54 524.10-0.54Q524.34-0.54 524.34-0.54L524.34-0.54Q525.58-0.54 526.91-1.32Q528.23-2.11 529.09-3.94L529.09-3.94ZM543.51-38.66L544.00-38.66L544.43-33.97L530.93-0.16L527.42-0.16L541.30-32.62Q541.35-32.72 541.70-33.45Q542.05-34.18 542.46-35.21Q542.86-36.23 543.19-37.21Q543.51-38.18 543.51-38.66L543.51-38.66ZM534.44-14.09L550.96-14.09L550.96-12.26L534.44-12.26L534.44-14.09ZM552.85-3.94L552.85-3.94L558.95-3.94Q559.82-2.11 561.14-1.32Q562.46-0.54 563.71-0.54L563.71-0.54Q563.71-0.54 563.92-0.54Q564.14-0.54 564.14-0.54L564.14-0.54L564.14 0L550.31 0L550.31-0.54L550.80-0.54Q551.88-0.54 552.69-1.43Q553.50-2.32 552.85-3.94ZM613.22-37.80L618.25-37.80L618.25 0L613.22 0L613.22-37.80ZM587.63-37.80L592.65-37.80L592.65 0L587.63 0L587.63-37.80ZM592.11-19.66L613.71-19.66L613.71-17.82L592.11-17.82L592.11-19.66ZM587.63-3.94L587.79-3.94L587.79 0L583.47 0L583.47-0.54Q583.47-0.54 583.82-0.54Q584.17-0.54 584.17-0.54L584.17-0.54Q585.58-0.54 586.58-1.54Q587.57-2.54 587.63-3.94L587.63-3.94ZM587.79-37.80L587.79-33.86L587.63-33.86Q587.57-35.26 586.58-36.26Q585.58-37.26 584.17-37.26L584.17-37.26Q584.17-37.26 583.82-37.26Q583.47-37.26 583.47-37.26L583.47-37.26L583.47-37.80L587.79-37.80ZM592.49 0L592.49-3.94L592.65-3.94Q592.70-2.54 593.70-1.54Q594.70-0.54 596.11-0.54L596.11-0.54Q596.11-0.54 596.43-0.54Q596.75-0.54 596.81-0.54L596.81-0.54L596.81 0L592.49 0ZM592.65-33.86L592.49-33.86L592.49-37.80L596.81-37.80L596.81-37.26Q596.75-37.26 596.43-37.26Q596.11-37.26 596.11-37.26L596.11-37.26Q594.70-37.26 593.70-36.26Q592.70-35.26 592.65-33.86L592.65-33.86ZM613.22-3.94L613.39-3.94L613.39 0L609.07 0L609.07-0.54Q609.12-0.54 609.44-0.54Q609.77-0.54 609.77-0.54L609.77-0.54Q611.17-0.54 612.20-1.54Q613.22-2.54 613.22-3.94L613.22-3.94ZM613.39-37.80L613.39-33.86L613.22-33.86Q613.22-35.26 612.20-36.26Q611.17-37.26 609.77-37.26L609.77-37.26Q609.77-37.26 609.44-37.26Q609.12-37.26 609.07-37.26L609.07-37.26L609.07-37.80L613.39-37.80ZM618.08 0L618.08-3.94L618.25-3.94Q618.30-2.54 619.30-1.54Q620.30-0.54 621.70-0.54L621.70-0.54Q621.70-0.54 622.05-0.54Q622.40-0.54 622.40-0.54L622.40-0.54L622.40 0L618.08 0ZM618.25-33.86L618.08-33.86L618.08-37.80L622.40-37.80L622.40-37.26Q622.40-37.26 622.05-37.26Q621.70-37.26 621.70-37.26L621.70-37.26Q620.30-37.26 619.30-36.26Q618.30-35.26 618.25-33.86L618.25-33.86ZM660.10-31.75L661.88-38.66L678.46-0.32L672.14-0.32L660.10-31.75ZM646.97-3.94L650.27-3.94Q649.89-2.86 650.16-2.11Q650.43-1.35 651.05-0.94Q651.67-0.54 652.32-0.54L652.32-0.54L652.81-0.54L652.81 0L641.74 0L641.74-0.54Q641.74-0.54 641.98-0.54Q642.22-0.54 642.22-0.54L642.22-0.54Q643.46-0.54 644.79-1.32Q646.11-2.11 646.97-3.94L646.97-3.94ZM661.39-38.66L661.88-38.66L662.31-33.97L648.81-0.16L645.30-0.16L659.18-32.62Q659.23-32.72 659.58-33.45Q659.93-34.18 660.34-35.21Q660.74-36.23 661.07-37.21Q661.39-38.18 661.39-38.66L661.39-38.66ZM652.32-14.09L668.84-14.09L668.84-12.26L652.32-12.26L652.32-14.09ZM670.73-3.94L670.73-3.94L676.84-3.94Q677.70-2.11 679.02-1.32Q680.35-0.54 681.59-0.54L681.59-0.54Q681.59-0.54 681.80-0.54Q682.02-0.54 682.02-0.54L682.02-0.54L682.02 0L668.20 0L668.20-0.54L668.68-0.54Q669.76-0.54 670.57-1.43Q671.38-2.32 670.73-3.94Z"/>
      <rect x="505" y="736" width="74" height="5" rx="1" fill="#2B4569"/>
      <rect x="957" y="736" width="74" height="5" rx="1" fill="#2B4569"/>
    </g>
  </g>
</svg>