<svg xmlns="http://www.w3.org/2000/svg" viewBox="0 0 120 120" width="120" height="120" role="img" aria-label="ديوان آل طه">
<polygon points="50,18 42.6,18 18,42.6 18,50 34,50 50,34" fill="#0F1B2D"></polygon><polygon points="70,18 77.4,18 102,42.6 102,50 86,50 70,34" fill="#0F1B2D"></polygon><polygon points="102,70 102,77.4 77.4,102 70,102 70,86 86,70" fill="#0F1B2D"></polygon><polygon points="50,102 42.6,102 18,77.4 18,70 34,70 50,86" fill="#0F1B2D"></polygon><polygon points="53,18 67,18 60,34" fill="#C6A46A"></polygon><polygon points="102,53 102,67 86,60" fill="#C6A46A"></polygon><polygon points="53,102 67,102 60,86" fill="#C6A46A"></polygon><polygon points="18,53 18,67 34,60" fill="#C6A46A"></polygon>
</svg>